<svg width="320" height="180" viewBox="0 0 320 180" fill="none" xmlns="http://www.w3.org/2000/svg">
<rect width="320" height="180" fill="#ECEDED"/>
<g clip-path="url(#clip0_960_137525)">
<path d="M135.362 67.2268C136.474 66.4565 137.821 66 139.168 66C142.768 66 145.667 68.8816 145.667 72.3623V86H142.124V72.3623C142.154 71.3352 141.597 70.3652 140.661 69.8231C139.753 69.3096 138.611 69.3096 137.675 69.8231C136.767 70.3652 136.211 71.3352 136.211 72.3623V86H132.669L132.756 71.9058C132.756 70.1563 132.756 69.5093 131 69.5093V66H132.756C133.752 66 134.718 66.485 135.362 67.2268Z" fill="url(#paint0_linear_960_137525)"/>
<path d="M154.071 69.5093H160.333V66H154.071C150.727 66 148.058 68.6819 148.058 71.9058V80.1512C148.058 83.4037 150.727 86 154.071 86H160.333V82.5763H154.071C152.693 82.5478 151.607 81.4922 151.578 80.1512V77.2411C152.37 77.5835 153.221 77.7546 154.071 77.7546H160.333V74.3024H154.071C152.693 74.3024 151.578 73.2468 151.578 71.9058C151.578 70.5934 152.693 69.5093 154.071 69.5093Z" fill="url(#paint1_linear_960_137525)"/>
<path d="M175 71.3923V66H171.451V71.3923C171.451 72.6481 170.502 74.35 168.889 74.35C167.3 74.35 166.298 72.6201 166.298 71.3923V66H162.778V71.3923C162.748 73.1327 163.511 74.7874 164.802 75.9857C163.511 77.184 162.748 78.8388 162.778 80.5506V86H166.298V80.5506C166.327 78.9815 167.305 77.7546 168.889 77.7546C170.502 77.7546 171.451 78.9815 171.451 80.5506V86H175V80.5506C175 78.8388 174.267 77.184 172.976 75.9857C174.267 74.7874 175 73.1327 175 71.3923Z" fill="url(#paint2_linear_960_137525)"/>
<path d="M177.444 69.4522V66H189.667V69.4522H187.584C186 69.4522 185.267 70.1655 185.267 71.9058V86H181.844V71.8773C181.844 70.1588 181.111 69.4522 179.512 69.4522H177.444Z" fill="url(#paint3_linear_960_137525)"/>
</g>
<path d="M129.36 121H126.395L130.914 107.909H134.481L138.993 121H136.027L132.748 110.901H132.646L129.36 121ZM129.175 115.854H136.181V118.015H129.175V115.854ZM146.814 116.82V111.182H149.537V121H146.923V119.217H146.82C146.599 119.792 146.23 120.254 145.715 120.604C145.203 120.953 144.579 121.128 143.842 121.128C143.185 121.128 142.608 120.979 142.109 120.68C141.611 120.382 141.221 119.958 140.94 119.408C140.663 118.859 140.522 118.2 140.518 117.433V111.182H143.241V116.947C143.245 117.527 143.401 117.985 143.707 118.322C144.014 118.658 144.425 118.827 144.941 118.827C145.269 118.827 145.576 118.752 145.862 118.603C146.147 118.45 146.377 118.224 146.552 117.925C146.731 117.627 146.818 117.259 146.814 116.82ZM155.333 121.16C154.587 121.16 153.912 120.968 153.307 120.585C152.706 120.197 152.229 119.628 151.875 118.878C151.525 118.124 151.351 117.199 151.351 116.104C151.351 114.979 151.532 114.043 151.894 113.298C152.256 112.548 152.738 111.987 153.339 111.616C153.944 111.241 154.606 111.054 155.327 111.054C155.876 111.054 156.334 111.148 156.701 111.335C157.072 111.518 157.37 111.749 157.596 112.026C157.826 112.298 158.001 112.567 158.12 112.831H158.203V107.909H160.92V121H158.235V119.428H158.12C157.992 119.7 157.811 119.971 157.577 120.239C157.346 120.504 157.046 120.723 156.675 120.898C156.309 121.072 155.861 121.16 155.333 121.16ZM156.196 118.993C156.635 118.993 157.006 118.874 157.308 118.635C157.615 118.392 157.849 118.053 158.011 117.619C158.177 117.184 158.261 116.675 158.261 116.091C158.261 115.507 158.18 115 158.018 114.57C157.856 114.139 157.621 113.807 157.314 113.572C157.008 113.338 156.635 113.221 156.196 113.221C155.748 113.221 155.371 113.342 155.064 113.585C154.758 113.828 154.525 114.165 154.368 114.595C154.21 115.026 154.131 115.524 154.131 116.091C154.131 116.662 154.21 117.167 154.368 117.606C154.53 118.04 154.762 118.381 155.064 118.629C155.371 118.871 155.748 118.993 156.196 118.993ZM163.158 121V111.182H165.881V121H163.158ZM164.526 109.916C164.121 109.916 163.774 109.782 163.484 109.513C163.199 109.241 163.056 108.915 163.056 108.536C163.056 108.161 163.199 107.839 163.484 107.57C163.774 107.298 164.121 107.161 164.526 107.161C164.931 107.161 165.276 107.298 165.562 107.57C165.852 107.839 165.996 108.161 165.996 108.536C165.996 108.915 165.852 109.241 165.562 109.513C165.276 109.782 164.931 109.916 164.526 109.916ZM172.499 121.192C171.506 121.192 170.647 120.981 169.923 120.559C169.203 120.133 168.647 119.54 168.254 118.782C167.862 118.019 167.666 117.135 167.666 116.129C167.666 115.115 167.862 114.229 168.254 113.47C168.647 112.707 169.203 112.115 169.923 111.693C170.647 111.267 171.506 111.054 172.499 111.054C173.492 111.054 174.348 111.267 175.068 111.693C175.793 112.115 176.351 112.707 176.743 113.47C177.135 114.229 177.331 115.115 177.331 116.129C177.331 117.135 177.135 118.019 176.743 118.782C176.351 119.54 175.793 120.133 175.068 120.559C174.348 120.981 173.492 121.192 172.499 121.192ZM172.512 119.082C172.963 119.082 173.34 118.955 173.643 118.699C173.946 118.439 174.174 118.085 174.327 117.638C174.485 117.19 174.563 116.681 174.563 116.11C174.563 115.539 174.485 115.03 174.327 114.582C174.174 114.135 173.946 113.781 173.643 113.521C173.34 113.261 172.963 113.131 172.512 113.131C172.056 113.131 171.672 113.261 171.361 113.521C171.054 113.781 170.822 114.135 170.664 114.582C170.511 115.03 170.434 115.539 170.434 116.11C170.434 116.681 170.511 117.19 170.664 117.638C170.822 118.085 171.054 118.439 171.361 118.699C171.672 118.955 172.056 119.082 172.512 119.082ZM195.349 114.455C195.349 115.882 195.078 117.097 194.537 118.098C194 119.099 193.267 119.864 192.338 120.393C191.413 120.917 190.374 121.179 189.219 121.179C188.055 121.179 187.011 120.915 186.087 120.386C185.162 119.858 184.431 119.093 183.894 118.092C183.357 117.09 183.089 115.878 183.089 114.455C183.089 113.027 183.357 111.812 183.894 110.811C184.431 109.81 185.162 109.047 186.087 108.523C187.011 107.994 188.055 107.73 189.219 107.73C190.374 107.73 191.413 107.994 192.338 108.523C193.267 109.047 194 109.81 194.537 110.811C195.078 111.812 195.349 113.027 195.349 114.455ZM192.543 114.455C192.543 113.53 192.404 112.75 192.127 112.115C191.854 111.48 191.469 110.999 190.97 110.67C190.472 110.342 189.888 110.178 189.219 110.178C188.55 110.178 187.966 110.342 187.467 110.67C186.969 110.999 186.581 111.48 186.304 112.115C186.031 112.75 185.895 113.53 185.895 114.455C185.895 115.379 186.031 116.159 186.304 116.794C186.581 117.429 186.969 117.911 187.467 118.239C187.966 118.567 188.55 118.731 189.219 118.731C189.888 118.731 190.472 118.567 190.97 118.239C191.469 117.911 191.854 117.429 192.127 116.794C192.404 116.159 192.543 115.379 192.543 114.455ZM200.071 115.324V121H197.348V111.182H199.943V112.914H200.058C200.275 112.343 200.64 111.891 201.151 111.559C201.663 111.222 202.283 111.054 203.011 111.054C203.693 111.054 204.288 111.203 204.795 111.501C205.302 111.8 205.696 112.226 205.977 112.78C206.258 113.33 206.399 113.986 206.399 114.749V121H203.676V115.234C203.68 114.634 203.527 114.165 203.216 113.828C202.905 113.487 202.476 113.317 201.931 113.317C201.564 113.317 201.241 113.396 200.959 113.553C200.682 113.711 200.465 113.941 200.307 114.244C200.154 114.542 200.075 114.902 200.071 115.324ZM211.268 107.909V121H208.545V107.909H211.268ZM215.131 124.682C214.785 124.682 214.462 124.654 214.159 124.599C213.861 124.548 213.614 124.482 213.417 124.401L214.031 122.368C214.351 122.466 214.638 122.519 214.894 122.528C215.154 122.536 215.378 122.477 215.565 122.349C215.757 122.221 215.913 122.004 216.032 121.697L216.192 121.281L212.67 111.182H215.533L217.566 118.392H217.668L219.72 111.182H222.603L218.787 122.061C218.604 122.589 218.354 123.05 218.039 123.442C217.728 123.838 217.334 124.143 216.856 124.356C216.379 124.573 215.804 124.682 215.131 124.682Z" fill="#6E7377"/>
<rect x="97" y="112.033" width="2.62382" height="3.93572" rx="1.31191" fill="#6E7377"/>
<rect x="101.577" y="108.752" width="2.62382" height="10.4953" rx="1.31191" fill="#6E7377"/>
<rect x="106.154" y="105.131" width="2.62382" height="17.74" rx="1.31191" fill="#6E7377"/>
<rect x="110.731" y="108.752" width="2.62382" height="10.4953" rx="1.31191" fill="#6E7377"/>
<rect x="115.308" y="112.033" width="2.62382" height="3.93572" rx="1.31191" fill="#6E7377"/>
<defs>
<linearGradient id="paint0_linear_960_137525" x1="136.042" y1="39.25" x2="165.226" y2="98.1169" gradientUnits="userSpaceOnUse">
<stop offset="0.258586" stop-color="#7F00FF"/>
<stop offset="0.598786" stop-color="#CB01FF"/>
<stop offset="1" stop-color="#FF00CC"/>
</linearGradient>
<linearGradient id="paint1_linear_960_137525" x1="136.042" y1="39.25" x2="165.226" y2="98.1169" gradientUnits="userSpaceOnUse">
<stop offset="0.258586" stop-color="#7F00FF"/>
<stop offset="0.598786" stop-color="#CB01FF"/>
<stop offset="1" stop-color="#FF00CC"/>
</linearGradient>
<linearGradient id="paint2_linear_960_137525" x1="136.042" y1="39.25" x2="165.226" y2="98.1169" gradientUnits="userSpaceOnUse">
<stop offset="0.258586" stop-color="#7F00FF"/>
<stop offset="0.598786" stop-color="#CB01FF"/>
<stop offset="1" stop-color="#FF00CC"/>
</linearGradient>
<linearGradient id="paint3_linear_960_137525" x1="136.042" y1="39.25" x2="165.226" y2="98.1169" gradientUnits="userSpaceOnUse">
<stop offset="0.258586" stop-color="#7F00FF"/>
<stop offset="0.598786" stop-color="#CB01FF"/>
<stop offset="1" stop-color="#FF00CC"/>
</linearGradient>
<clipPath id="clip0_960_137525">
<rect width="58.6667" height="20" fill="white" transform="translate(131 66)"/>
</clipPath>
</defs>
</svg>
